# ProBuilder 4.2.3
# https://unity3d.com/unity/features/worldbuilding/probuilder
# 2020/05/24 14:02:12

mtllib ./Beacon.mtl
o Beacon

g Beacon
v -0.3641298 0.3622183 -0.2703443
v -0.6396905 0.3622183 -0.2703443
v -0.3641298 0.6377818 -0.2703443
v -0.6396905 0.6377818 -0.2703443
v -0.733261 0.3622183 -0.3622447
v -0.733261 0.3622183 -0.6378084
v -0.733261 0.6377818 -0.3622447
v -0.733261 0.6377818 -0.6378084
v -0.6413107 0.3622183 -0.7297556
v -0.36575 0.3622183 -0.7297556
v -0.6413107 0.6377818 -0.7297556
v -0.36575 0.6377818 -0.7297556
v -0.2738028 0.3622183 -0.6378084
v -0.2738028 0.3622183 -0.3622447
v -0.2738028 0.6377818 -0.6378084
v -0.2738028 0.6377818 -0.3622447
v -0.3641298 0.7296826 -0.3622447
v -0.6396905 0.7296826 -0.3622447
v -0.3641298 0.7296826 -0.6378084
v -0.6396905 0.7296826 -0.6378084
v -0.3641298 0.2703177 -0.6378084
v -0.6396905 0.2703177 -0.6378084
v -0.3641298 0.2703177 -0.3622447
v -0.6396905 0.2703177 -0.3622447
v 0 0.2 -0.8
v 0 0.2 -0.2
v -0.2 0 -0.8
v -0.2 0 -0.2
v -0.2 0.2 -1
v -0.2 0.8 -1
v 0 0.8 -0.8
v -0.2 0.8 0
v -0.2 0.2 0
v 0 0.8 -0.2
v -0.2 1 -0.2
v -0.2 1 -0.8
v -0.8 0.8 0
v -0.8 1 -0.2
v -1 0.8 -0.8
v -1 0.8 -0.2
v -0.8 1 -0.8
v -0.8 0.8 -1
v -1 0.2 -0.2
v -1 0.2 -0.8
v -0.8 0 -0.2
v -0.8 0 -0.8
v -0.8 0.2 0
v -0.8 0.2 -1
v -0.003429413 0.2 -0.7999992
v -0.003429413 0.2 -0.1999989
v -0.003429413 0.8 -0.7999992
v -0.003429413 0.8 -0.1999989
v -0.8035278 0.2 -1.000099
v -0.2035294 0.2 -1.000099
v -0.8035278 0.8 -1.000099
v -0.2035294 0.8 -1.000099
v -1.003628 0.2 -0.1999989
v -1.003628 0.2 -0.7999992
v -1.003628 0.8 -0.1999989
v -1.003628 0.8 -0.7999992

vt -0.2 0.2
vt -0.8 0.2
vt -0.2 0.8
vt -0.8 0.8
vt 0.8 0.2
vt 0.2 0.2
vt 0.8 0.8
vt 0.2 0.8
vt 0.2 -0.2
vt 0.8 -0.2
vt 0.2 -0.8
vt 0.8 -0.8
vt -0.2 -0.8
vt -0.8 -0.8
vt -0.2 -0.2
vt -0.8 -0.2
vt 0.1414214 -0.8
vt 0.1414214 -0.2
vt -0.1414214 -0.8
vt -0.1414214 -0.2
vt 0.8485281 0.2
vt 0.8485281 0.8
vt 0.5656855 0.2
vt 0.5656855 0.8
vt -0.1414214 0.8
vt -0.1414214 0.2
vt 0.1414214 0.8
vt 0.1414214 0.2
vt 0.5656855 -0.2
vt 0.5656855 -0.8
vt 0.8485281 -0.2
vt 0.8485281 -0.8
vt -0.8 0.5656855
vt -0.2 0.5656855
vt -0.8 0.8485281
vt -0.2 0.8485281
vt 0.2 -0.1414214
vt 0.8 -0.1414214
vt 0.2 0.1414214
vt 0.8 0.1414214
vt -0.8485281 -0.2
vt -0.8485281 -0.8
vt -0.5656855 -0.2
vt -0.5656855 -0.8
vt -0.5656855 0.2
vt -0.5656855 0.8
vt -0.8485281 0.2
vt -0.8485281 0.8
vt 0.8 0.8485281
vt 0.2 0.8485281
vt 0.8 0.5656854
vt 0.2 0.5656854
vt -0.2 0.1414214
vt -0.8 0.1414214
vt -0.2 -0.1414214
vt -0.8 -0.1414214
vt 0.5656855 0.4898979
vt 0.7071068 0.244949
vt 0.8485281 0.4898979
vt 0.1414214 0.08164965
vt 0 -0.1632993
vt -0.1414214 0.08164965
vt 0.8485281 0.3265986
vt 0.5656855 0.3265986
vt 0.7071068 0.5715475
vt -0.1414214 0.7348469
vt 0.1414214 0.7348469
vt 0 0.9797959
vt -0.5656855 0.3265986
vt -0.7071068 0.5715475
vt -0.8485281 0.3265986
vt 0.1414213 -0.08164965
vt 0 0.1632993
vt -0.1414213 -0.08164965
vt -0.8485281 0.4898979
vt -0.7071068 0.244949
vt -0.5656855 0.4898979
vt 0.1414213 0.8981461
vt 0 0.6531972
vt -0.1414213 0.8981461
vt 2.607064E-06 -0.8
vt 2.607064E-06 -0.2
vt 0.00343202 -0.7999992
vt 0.00343202 -0.1999989
vt 0.0001807564 0.8
vt 0.0001807564 0.2
vt -0.003248657 0.8
vt -0.003248657 0.2
vt 0.003362499 0.2
vt 0.003362499 0.8
vt -0.003415508 -0.1999989
vt -0.003415508 -0.7999992
vt -0.8 -1.00009
vt -0.2 -1.00009
vt -0.8035278 -1.000189
vt -0.2035294 -1.000189
vt -0.8277872 0.8
vt -0.8277872 0.2
vt -0.8313165 0.8
vt -0.8313165 0.2
vt 0.228012 0.2
vt 0.228012 0.8
vt 0.2315428 0.2
vt 0.2315428 0.8
vt 0.2 -0.9995191
vt 0.8 -0.9995191
vt 0.2035294 -0.9996182
vt 0.8035278 -0.9996182
vt -1.000003 -0.2
vt -1.000003 -0.8
vt -1.00363 -0.1999989
vt -1.00363 -0.7999992
vt -0.9999368 0.8
vt -0.9999368 0.2
vt -1.003564 0.8
vt -1.003564 0.2
vt 0.9998291 0.2
vt 0.9998291 0.8
vt 1.003457 0.2
vt 1.003457 0.8
vt 0.9999868 -0.8
vt 0.9999868 -0.2
vt 1.003615 -0.7999992
vt 1.003615 -0.1999989
vt 0.2 0.7544925
vt 0.8 0.7544925
vt 0.3641298 0.4392231
vt 0.6396905 0.4392231
vt -0.8 0.7509759
vt -0.2 0.7509759
vt -0.6378084 0.4347322
vt -0.3622447 0.4347322
vt 0.2 1.268193
vt 0.8 1.268193
vt 0.3622447 0.9539147
vt 0.6378084 0.9539147
vt -0.8 1.26909
vt -0.2 1.26909
vt -0.6396905 0.953848
vt -0.3641298 0.953848
vt -0.2 -0.4115984
vt -0.8 -0.4115984
vt -0.3641298 -0.09635604
vt -0.6396905 -0.09635604
vt -0.2 0.1037995
vt -0.8 0.1037995
vt -0.3622447 0.4200435
vt -0.6378084 0.4200435
vt 0.8 -0.4080703
vt 0.2 -0.4080703
vt 0.6378084 -0.09379207
vt 0.3622447 -0.09379207
vt 0.8 0.1029244
vt 0.2 0.1029244
vt 0.6396905 0.4181941
vt 0.3641298 0.4181941
vt 0.757708 -0.1999989
vt 0.757708 -0.7999992
vt 0.4424097 -0.3622447
vt 0.4424097 -0.6378084
vt 0.757657 0.8
vt 0.757657 0.2
vt 0.4423446 0.6377818
vt 0.4423446 0.3622183
vt -1.272187 0.2
vt -1.272187 0.8
vt -0.9569024 0.3622183
vt -0.9569024 0.6377818
vt -1.272199 -0.7999992
vt -1.272199 -0.1999989
vt -0.9569013 -0.6378084
vt -0.9569013 -0.3622447
vt 0.1058372 -0.7999992
vt 0.1058372 -0.1999989
vt 0.4211411 -0.6378084
vt 0.4211411 -0.3622447
vt 0.4085935 0.8
vt 0.4085935 0.2
vt 0.09330376 0.6377818
vt 0.09330376 0.3622183
vt 0.1058493 0.2
vt 0.1058493 0.8
vt 0.4211673 0.3622183
vt 0.4211673 0.6377818
vt 0.408645 -0.1999989
vt 0.408645 -0.7999992
vt 0.09334116 -0.3622447
vt 0.09334116 -0.6378084
vt 0.2 -0.1029046
vt 0.8 -0.1029046
vt 0.3641298 -0.4181836
vt 0.6396905 -0.4181836
vt -0.103792 0.8
vt -0.103792 0.2
vt -0.4200587 0.6377818
vt -0.4200587 0.3622183
vt -0.4080406 0.2
vt -0.4080406 0.8
vt -0.09373957 0.3622183
vt -0.09373957 0.6377818
vt -0.8 0.4116184
vt -0.2 0.4116184
vt -0.6396905 0.09633952
vt -0.3641298 0.09633952
vt 0.8035278 -0.7546561
vt 0.2035294 -0.7546561
vt 0.6413107 -0.4393778
vt 0.36575 -0.4393778
vt 1.270995 0.8
vt 1.270995 0.2
vt 0.9557172 0.6377818
vt 0.9557172 0.3622183
vt -0.7528358 0.2
vt -0.7528358 0.8
vt -0.4375562 0.3622183
vt -0.4375562 0.6377818
vt -0.2035294 -1.26918
vt -0.8035278 -1.26918
vt -0.36575 -0.9539019
vt -0.6413107 -0.9539019

vn 0 0 1
vn -1 0 0
vn 0 0 -1
vn 1 0 0
vn 0 1 0
vn 0 -1 0
vn 0.7071068 -0.7071068 0
vn 0.7071068 0 -0.7071068
vn 0.7071068 0 0.7071068
vn 0.7071068 0.7071068 0
vn 0 0.7071068 0.7071068
vn -0.7071068 0.7071068 0
vn 0 0.7071068 -0.7071068
vn -0.7071068 -0.7071068 0
vn -0.7071068 0 0.7071068
vn -0.7071068 0 -0.7071068
vn 0 -0.7071068 -0.7071068
vn 0 -0.7071068 0.7071068
vn 0.5773503 -0.5773503 -0.5773503
vn 0.5773503 -0.5773503 0.5773503
vn 0.5773503 0.5773503 -0.5773503
vn 0.5773503 0.5773503 0.5773503
vn -0.5773503 0.5773503 0.5773503
vn -0.5773503 0.5773503 -0.5773503
vn -0.5773503 -0.5773503 0.5773503
vn -0.5773503 -0.5773503 -0.5773503
vn 0 -0.9999999 -0.0004507211
vn -0.02810318 0 0.9996051
vn 0.02809097 0 -0.9996054
vn 0 0.9999998 -0.0006009614
vn 0 0.5146223 -0.857417
vn -0.8547755 0.5189979 0
vn 0.8601221 0.5100883 0
vn 0 0.5144986 0.8574913
vn 0 -0.5144981 0.8574916
vn -0.8547758 -0.5189975 0
vn 0.8601223 -0.5100878 0
vn 0 -0.5146218 -0.8574173
vn -0.5144916 0.8574955 0
vn -0.5145558 0 -0.8574569
vn -0.5144277 0 0.8575338
vn -0.5144913 -0.8574956 0
vn 0.5144824 0.857501 0
vn 0.5144184 0 0.8575393
vn 0.5145466 0 -0.8574624
vn 0.5144821 -0.8575011 0
vn 0 0.8574765 0.5145232
vn -0.8547984 0 0.5189602
vn 0.8601443 0 0.5100508
vn 0 -0.8574766 0.514523
vn 0 0.8574759 -0.5145241
vn 0.8574775 0 -0.5145215
vn -0.8574726 0 -0.5145296
vn 0 -0.8574761 -0.5145239

usemtl BeaconLight
f 3/3/1 4/4/1 2/2/1 1/1/1
f 7/3/2 8/4/2 6/2/2 5/1/2
f 11/7/3 12/8/3 10/6/3 9/5/3
f 15/7/4 16/8/4 14/6/4 13/5/4
f 19/11/5 20/12/5 18/10/5 17/9/5
f 23/15/6 24/16/6 22/14/6 21/13/6

usemtl Beacon
f 25/57/19 27/58/19 29/59/19
f 33/62/20 28/61/20 26/60/20
f 36/65/21 31/64/21 30/63/21
f 32/66/22 34/67/22 35/68/22
f 37/69/23 38/70/23 40/71/23
f 39/72/24 41/73/24 42/74/24
f 43/75/25 45/76/25 47/77/25
f 48/80/26 46/79/26 44/78/26
f 27/19/7 25/17/7 26/18/7
f 26/18/7 28/20/7 27/19/7
f 25/23/8 29/21/8 30/22/8
f 30/22/8 31/24/8 25/23/8
f 34/27/9 32/25/9 33/26/9
f 33/26/9 26/28/9 34/27/9
f 35/31/10 34/29/10 31/30/10
f 31/30/10 36/32/10 35/31/10
f 38/35/11 37/33/11 32/34/11
f 32/34/11 35/36/11 38/35/11
f 41/19/12 39/17/12 40/18/12
f 40/18/12 38/20/12 41/19/12
f 36/39/13 30/37/13 42/38/13
f 42/38/13 41/40/13 36/39/13
f 45/43/14 43/41/14 44/42/14
f 44/42/14 46/44/14 45/43/14
f 43/47/15 47/45/15 37/46/15
f 37/46/15 40/48/15 43/47/15
f 48/26/16 44/28/16 39/27/16
f 39/27/16 42/25/16 48/26/16
f 46/51/17 48/49/17 29/50/17
f 29/50/17 27/52/17 46/51/17
f 28/55/18 33/53/18 47/54/18
f 47/54/18 45/56/18 28/55/18
f 50/84/5 26/82/5 25/81/5
f 25/81/5 49/83/5 50/84/5
f 49/88/1 25/86/1 31/85/1
f 31/85/1 51/87/1 49/88/1
f 52/90/3 34/85/3 26/86/3
f 26/86/3 50/89/3 52/90/3
f 51/92/6 31/81/6 34/82/6
f 34/82/6 52/91/6 51/92/6
f 54/96/27 29/94/27 48/93/27
f 48/93/27 53/95/27 54/96/27
f 53/100/28 48/98/28 42/97/28
f 42/97/28 55/99/28 53/100/28
f 56/104/29 30/102/29 29/101/29
f 29/101/29 54/103/29 56/104/29
f 55/108/30 42/106/30 30/105/30
f 30/105/30 56/107/30 55/108/30
f 58/112/6 44/110/6 43/109/6
f 43/109/6 57/111/6 58/112/6
f 57/116/1 43/114/1 40/113/1
f 40/113/1 59/115/1 57/116/1
f 60/120/3 39/118/3 44/117/3
f 44/117/3 58/119/3 60/120/3
f 59/124/5 40/122/5 39/121/5
f 39/121/5 60/123/5 59/124/5
f 18/128/31 38/126/31 35/125/31
f 35/125/31 17/127/31 18/128/31
f 17/132/32 35/130/32 36/129/32
f 36/129/32 19/131/32 17/132/32
f 20/136/33 41/134/33 38/133/33
f 38/133/33 18/135/33 20/136/33
f 19/140/34 36/138/34 41/137/34
f 41/137/34 20/139/34 19/140/34
f 22/144/35 46/142/35 27/141/35
f 27/141/35 21/143/35 22/144/35
f 21/148/36 27/146/36 28/145/36
f 28/145/36 23/147/36 21/148/36
f 24/152/37 45/150/37 46/149/37
f 46/149/37 22/151/37 24/152/37
f 23/156/38 28/154/38 45/153/38
f 45/153/38 24/155/38 23/156/38
f 6/160/39 58/158/39 57/157/39
f 57/157/39 5/159/39 6/160/39
f 5/164/40 57/162/40 59/161/40
f 59/161/40 7/163/40 5/164/40
f 8/168/41 60/166/41 58/165/41
f 58/165/41 6/167/41 8/168/41
f 7/172/42 59/170/42 60/169/42
f 60/169/42 8/171/42 7/172/42
f 14/176/43 50/174/43 49/173/43
f 49/173/43 13/175/43 14/176/43
f 13/180/44 49/178/44 51/177/44
f 51/177/44 15/179/44 13/180/44
f 16/184/45 52/182/45 50/181/45
f 50/181/45 14/183/45 16/184/45
f 15/188/46 51/186/46 52/185/46
f 52/185/46 16/187/46 15/188/46
f 2/192/47 47/190/47 33/189/47
f 33/189/47 1/191/47 2/192/47
f 1/196/48 33/194/48 32/193/48
f 32/193/48 3/195/48 1/196/48
f 4/200/49 37/198/49 47/197/49
f 47/197/49 2/199/49 4/200/49
f 3/204/50 32/202/50 37/201/50
f 37/201/50 4/203/50 3/204/50
f 10/208/51 54/206/51 53/205/51
f 53/205/51 9/207/51 10/208/51
f 9/212/52 53/210/52 55/209/52
f 55/209/52 11/211/52 9/212/52
f 12/216/53 56/214/53 54/213/53
f 54/213/53 10/215/53 12/216/53
f 11/220/54 55/218/54 56/217/54
f 56/217/54 12/219/54 11/220/54

